# xmcd
#
# Track frame offsets: 
#        182
#        14085
#        29740
#        44670
#        67827
#        84957
#        101415
#        118750
#        136065
#        172002
#        193727
#        216372
#        233450
#        250735
#        270677
#        296495
#
# Disc length: 4423 seconds
#
# Revision: 5
# Processed by: cddbd v1.5.2PL0 Copyright (c) Steve Scherf et al.
# Submitted via: ExactAudioCopy v1.0b3
#
DISCID=e7114510
DTITLE=Jermaine Jackson - Greatest Hits and Rare Classics
DYEAR=1991
DGENRE=Soul
TTITLE0=Daddy's Home
TTITLE1=That's How Love Goes
TTITLE2=You're In Good Hands
TTITLE3=Let's Be Young Tonight
TTITLE4=You Need To Be Loved
TTITLE5=Castles Of Sand
TTITLE6=Where Are You Now
TTITLE7=You're Supposed To Keep Your Love For Me
TTITLE8=Let's Get Serious
TTITLE9=Little Girl Don't You Worry
TTITLE10=You Like Me Don't You
TTITLE11=I'm Just Too Shy
TTITLE12=Let Me Tickle Your Fancy
TTITLE13=Paradise In Your Eyes
TTITLE14=Very Special Part
TTITLE15=Burnin' Hot
EXTD=
EXTT0=
EXTT1=
EXTT2=
EXTT3=
EXTT4=
EXTT5=
EXTT6=
EXTT7=
EXTT8=
EXTT9=
EXTT10=
EXTT11=
EXTT12=
EXTT13=
EXTT14=
EXTT15=
PLAYORDER=
